<svg xmlns="http://www.w3.org/2000/svg" viewBox="0 0 100 100" fill="none">
  <circle cx="50" cy="50" r="45" fill="#61DAFB"/>
  <path d="M50 25c13.807 0 25 11.193 25 25s-11.193 25-25 25-25-11.193-25-25 11.193-25 25-25z" fill="white"/>
  <path d="M50 35c8.284 0 15 6.716 15 15s-6.716 15-15 15-15-6.716-15-15 6.716-15 15-15z" fill="#61DAFB"/>
  <ellipse cx="50" cy="50" rx="35" ry="12" stroke="white" stroke-width="3" fill="none"/>
  <ellipse cx="50" cy="50" rx="35" ry="12" stroke="white" stroke-width="3" fill="none" transform="rotate(60 50 50)"/>
  <ellipse cx="50" cy="50" rx="35" ry="12" stroke="white" stroke-width="3" fill="none" transform="rotate(120 50 50)"/>
  <circle cx="50" cy="50" r="5" fill="white"/>
</svg>
